<svg width="24" height="24" viewBox="0 0 24 24" fill="none" xmlns="http://www.w3.org/2000/svg">
<path d="M13.7057 4.75341C13.1662 4.58869 12.5935 4.50008 12 4.50008C8.77837 4.50008 6.16671 7.11176 6.16671 10.3334V13.4354C6.16671 13.5836 6.10787 13.7256 6.00313 13.8303L5.57751 14.256C5.42124 14.4123 5.33337 14.6242 5.33337 14.8452V15.3334C5.33337 15.7937 5.70647 16.1667 6.16671 16.1667H17.8334C18.2936 16.1667 18.6667 15.7937 18.6667 15.3334V14.8452C18.6667 14.6242 18.5788 14.4123 18.4226 14.2559L17.9969 13.8303C17.8922 13.7256 17.8334 13.5836 17.8334 13.4354V10.3334C17.8334 10.1864 17.8281 10.0406 17.8171 9.89691M14.5 16.1667V17.0001C14.5 18.3808 13.3808 19.5001 12 19.5001C10.6193 19.5001 9.50004 18.3808 9.50004 17.0001V16.1667H14.5ZM19.5 7.00008C19.5 8.84103 18.0077 10.3334 16.1667 10.3334C14.3258 10.3334 12.8334 8.84103 12.8334 7.00008C12.8334 5.15913 14.3258 3.66675 16.1667 3.66675C18.0077 3.66675 19.5 5.15913 19.5 7.00008Z" stroke="white" stroke-width="2" stroke-linecap="round" stroke-linejoin="round"/>
</svg>
